<svg width="24" height="28" viewBox="0 0 24 28" fill="none" xmlns="http://www.w3.org/2000/svg">
<mask id="path-1-inside-1_375_191" fill="white">
<path fill-rule="evenodd" clip-rule="evenodd" d="M16.5667 1.66016C16.5667 1.10787 16.119 0.660156 15.5667 0.660156H8.56674C8.01446 0.660156 7.56674 1.10787 7.56674 1.66016V8.03477C7.56674 8.51885 7.21654 8.9273 6.75097 9.05988C1.06944 10.6778 -1.47192 17.9543 2.78653 22.7854C3.85615 23.9988 5.2388 24.8671 6.76058 25.3116C7.22222 25.4464 7.56674 25.8531 7.56674 26.334V26.6611C7.56674 27.2134 8.01446 27.6611 8.56674 27.6611H15.5667C16.119 27.6611 16.5667 27.2134 16.5667 26.6611V26.334C16.5667 25.8531 16.9113 25.4464 17.3729 25.3116C18.8946 24.8671 20.2772 23.9989 21.3468 22.7856C25.6055 17.9545 23.0642 10.6778 17.3825 9.05997C16.917 8.9274 16.5667 8.51894 16.5667 8.03487V1.66016Z"/>
</mask>
<path d="M2.78653 22.7854L2.03637 23.4466H2.03637L2.78653 22.7854ZM21.3468 22.7856L20.5967 22.1243L21.3468 22.7856ZM17.3825 9.05997L17.6564 8.0982L17.3825 9.05997ZM17.3729 25.3116L17.6533 26.2715L17.3729 25.3116ZM6.76058 25.3116L7.04096 24.3517L6.76058 25.3116ZM6.75097 9.05988L7.02485 10.0216L6.75097 9.05988ZM8.56674 1.66016H15.5667V-0.339844H8.56674V1.66016ZM8.56674 8.03477V1.66016H6.56674V8.03477H8.56674ZM3.5367 22.1241C-0.210966 17.8725 2.01439 11.4484 7.02485 10.0216L6.4771 8.09811C0.12449 9.90709 -2.73287 18.0361 2.03637 23.4466L3.5367 22.1241ZM7.04096 24.3517C5.69897 23.9597 4.47983 23.1941 3.5367 22.1241L2.03637 23.4466C3.23247 24.8036 4.77863 25.7744 6.4802 26.2715L7.04096 24.3517ZM8.56674 26.6611V26.334H6.56674V26.6611H8.56674ZM15.5667 26.6611H8.56674V28.6611H15.5667V26.6611ZM15.5667 26.334V26.6611H17.5667V26.334H15.5667ZM20.5967 22.1243C19.6536 23.1942 18.4345 23.9597 17.0925 24.3517L17.6533 26.2715C19.3548 25.7745 20.9009 24.8037 22.097 23.4468L20.5967 22.1243ZM17.1087 10.0217C22.1192 11.4485 24.3445 17.8727 20.5967 22.1243L22.097 23.4468C26.8664 18.0364 24.0091 9.90717 17.6564 8.0982L17.1087 10.0217ZM15.5667 1.66016V8.03487H17.5667V1.66016H15.5667ZM17.6564 8.0982C17.6182 8.08732 17.5904 8.06613 17.5758 8.04824C17.5692 8.04013 17.5671 8.03486 17.5666 8.03372C17.5664 8.03315 17.5665 8.03323 17.5666 8.03383C17.5667 8.03448 17.5667 8.03493 17.5667 8.03487H15.5667C15.5667 9.02467 16.2728 9.78373 17.1087 10.0217L17.6564 8.0982ZM17.5667 26.334C17.5667 26.3338 17.5668 26.334 17.5667 26.3345C17.5666 26.3349 17.5665 26.3349 17.5668 26.3343C17.5672 26.3331 17.5693 26.328 17.5756 26.3202C17.5894 26.303 17.616 26.2824 17.6533 26.2715L17.0925 24.3517C16.261 24.5946 15.5667 25.3525 15.5667 26.334H17.5667ZM15.5667 28.6611C16.6713 28.6611 17.5667 27.7657 17.5667 26.6611H15.5667V28.6611ZM6.4802 26.2715C6.51749 26.2823 6.54407 26.303 6.55788 26.3202C6.56417 26.328 6.56627 26.3331 6.56672 26.3343C6.56695 26.3349 6.5669 26.3349 6.56682 26.3345C6.56673 26.334 6.56674 26.3337 6.56674 26.334H8.56674C8.56674 25.3525 7.87247 24.5946 7.04096 24.3517L6.4802 26.2715ZM6.56674 8.03477C6.56674 8.03483 6.56675 8.03439 6.56687 8.03374C6.56698 8.03314 6.56706 8.03306 6.56684 8.03363C6.56642 8.03477 6.56425 8.04004 6.55765 8.04815C6.5431 8.06604 6.51533 8.08722 6.4771 8.09811L7.02485 10.0216C7.86069 9.78363 8.56674 9.02457 8.56674 8.03477H6.56674ZM15.5667 1.66016V1.66016H17.5667C17.5667 0.555587 16.6713 -0.339844 15.5667 -0.339844V1.66016ZM6.56674 26.6611C6.56674 27.7657 7.46217 28.6611 8.56674 28.6611V26.6611H6.56674ZM8.56674 -0.339844C7.46217 -0.339844 6.56674 0.555588 6.56674 1.66016H8.56674V1.66016V-0.339844Z" fill="#949494" mask="url(#path-1-inside-1_375_191)"/>
</svg>
