<svg width="24" height="28" viewBox="0 0 24 28" fill="none" xmlns="http://www.w3.org/2000/svg">
<path d="M1.96677 1.16064H19.3303C19.4579 1.16064 19.5807 1.20942 19.6735 1.29698L23.3099 4.72826C23.41 4.82272 23.4668 4.95428 23.4668 5.09192V26.6606C23.4668 26.9367 23.2429 27.1606 22.9668 27.1606H5.60769C5.47876 27.1606 5.35482 27.1108 5.26174 27.0216L1.62081 23.5324C1.52241 23.4381 1.46677 23.3077 1.46677 23.1714V1.66064C1.46677 1.3845 1.69062 1.16064 1.96677 1.16064Z" stroke="#949494"/>
<path d="M1.96677 23.1189H19.4668M19.4668 23.1189V1.41064M19.4668 23.1189L22.9876 26.7023" stroke="#949494"/>
<rect x="3.57089" y="3.20227" width="2.95837" height="9" rx="0.5" stroke="#949494"/>
</svg>
