<svg width="32" height="29" viewBox="0 0 32 29" fill="none" xmlns="http://www.w3.org/2000/svg">
<mask id="path-1-inside-1_345_605" fill="white">
<path fill-rule="evenodd" clip-rule="evenodd" d="M10.1668 0.660645C4.64396 0.660645 0.166809 5.1378 0.166809 10.6607V13.7647C0.166809 19.2875 4.64396 23.7647 10.1668 23.7647H12.5268V28.4312C12.5268 28.8797 13.0718 29.1014 13.3849 28.7801L18.2725 23.7647H21.1668C26.6897 23.7647 31.1668 19.2875 31.1668 13.7647V10.6606C31.1668 5.1378 26.6897 0.660645 21.1668 0.660645H10.1668Z"/>
</mask>
<path d="M12.5268 23.7647H13.5268C13.5268 23.2124 13.0791 22.7647 12.5268 22.7647V23.7647ZM13.3849 28.7801L12.6687 28.0822L12.6687 28.0822L13.3849 28.7801ZM18.2725 23.7647V22.7647C18.0028 22.7647 17.7445 22.8736 17.5563 23.0667L18.2725 23.7647ZM1.16681 10.6607C1.16681 5.69009 5.19625 1.66064 10.1668 1.66064V-0.339355C4.09168 -0.339355 -0.833191 4.58552 -0.833191 10.6607H1.16681ZM1.16681 13.7647V10.6607H-0.833191V13.7647H1.16681ZM10.1668 22.7647C5.19625 22.7647 1.16681 18.7352 1.16681 13.7647H-0.833191C-0.833191 19.8398 4.09168 24.7647 10.1668 24.7647V22.7647ZM12.5268 22.7647H10.1668V24.7647H12.5268V22.7647ZM13.5268 28.4312V23.7647H11.5268V28.4312H13.5268ZM12.6687 28.0822C12.9818 27.7609 13.5268 27.9826 13.5268 28.4312H11.5268C11.5268 29.7769 13.1619 30.4418 14.1011 29.478L12.6687 28.0822ZM17.5563 23.0667L12.6687 28.0822L14.1011 29.478L18.9887 24.4626L17.5563 23.0667ZM21.1668 22.7647H18.2725V24.7647H21.1668V22.7647ZM30.1668 13.7647C30.1668 18.7352 26.1374 22.7647 21.1668 22.7647V24.7647C27.2419 24.7647 32.1668 19.8398 32.1668 13.7647H30.1668ZM30.1668 10.6606V13.7647H32.1668V10.6606H30.1668ZM21.1668 1.66064C26.1374 1.66064 30.1668 5.69008 30.1668 10.6606H32.1668C32.1668 4.58551 27.2419 -0.339355 21.1668 -0.339355V1.66064ZM10.1668 1.66064H21.1668V-0.339355H10.1668V1.66064Z" fill="#949494" mask="url(#path-1-inside-1_345_605)"/>
</svg>
