<svg width="31" height="30" viewBox="0 0 31 30" fill="none" xmlns="http://www.w3.org/2000/svg">
<mask id="path-1-inside-1_416_991" fill="white">
<path fill-rule="evenodd" clip-rule="evenodd" d="M10 0.770142C4.47715 0.770142 0 5.2473 0 10.7701V13.8742C0 19.397 4.47715 23.8742 10 23.8742H12.36V28.5406C12.36 28.9892 12.905 29.2109 13.2181 28.8896L18.1057 23.8742H21C26.5228 23.8742 31 19.397 31 13.8742V10.7701C31 5.24729 26.5228 0.770142 21 0.770142H10Z"/>
</mask>
<path d="M12.36 23.8742H13.36C13.36 23.3219 12.9123 22.8742 12.36 22.8742V23.8742ZM13.2181 28.8896L12.5019 28.1917L12.5019 28.1917L13.2181 28.8896ZM18.1057 23.8742V22.8742C17.836 22.8742 17.5777 22.9831 17.3895 23.1762L18.1057 23.8742ZM1 10.7701C1 5.79958 5.02944 1.77014 10 1.77014V-0.229858C3.92487 -0.229858 -1 4.69502 -1 10.7701H1ZM1 13.8742V10.7701H-1V13.8742H1ZM10 22.8742C5.02944 22.8742 1 18.8447 1 13.8742H-1C-1 19.9493 3.92487 24.8742 10 24.8742V22.8742ZM12.36 22.8742H10V24.8742H12.36V22.8742ZM13.36 28.5406V23.8742H11.36V28.5406H13.36ZM12.5019 28.1917C12.815 27.8704 13.36 28.0921 13.36 28.5406H11.36C11.36 29.8864 12.995 30.5513 13.9342 29.5875L12.5019 28.1917ZM17.3895 23.1762L12.5019 28.1917L13.9342 29.5875L18.8218 24.5721L17.3895 23.1762ZM21 22.8742H18.1057V24.8742H21V22.8742ZM30 13.8742C30 18.8447 25.9706 22.8742 21 22.8742V24.8742C27.0751 24.8742 32 19.9493 32 13.8742H30ZM30 10.7701V13.8742H32V10.7701H30ZM21 1.77014C25.9706 1.77014 30 5.79958 30 10.7701H32C32 4.69501 27.0751 -0.229858 21 -0.229858V1.77014ZM10 1.77014H21V-0.229858H10V1.77014Z" fill="#949494" mask="url(#path-1-inside-1_416_991)"/>
<path d="M6.59375 11.2389H24.4062" stroke="#949494" stroke-linecap="round"/>
<path d="M6.59375 14.3014H15.5" stroke="#949494" stroke-linecap="round"/>
</svg>
