<svg width="32" height="32" viewBox="0 0 32 32" fill="none" xmlns="http://www.w3.org/2000/svg">
<path d="M10.5472 7.61507C9.03959 5.08464 11.1412 1.93722 14.0562 2.35991L15.2153 2.52799C15.6431 2.59001 16.0775 2.59009 16.5053 2.52822L17.6935 2.35636C20.6081 1.93481 22.7086 5.08177 21.2014 7.61169L16.6787 15.2029C16.5096 15.4868 16.2036 15.6606 15.8733 15.6606C15.5429 15.6606 15.2369 15.4868 15.0678 15.2029L10.5472 7.61507Z" stroke="#949494"/>
<path d="M21.1994 24.7062C22.7069 27.2367 20.6053 30.3841 17.6903 29.9614L16.5312 29.7933C16.1035 29.7313 15.669 29.7312 15.2413 29.7931L14.053 29.9649C11.1384 30.3865 9.03789 27.2395 10.5452 24.7096L15.0678 17.1184C15.2369 16.8345 15.5429 16.6607 15.8733 16.6607C16.2036 16.6607 16.5096 16.8345 16.6787 17.1184L21.1994 24.7062Z" stroke="#949494"/>
<path d="M24.4129 10.8348C26.9436 9.32834 30.0899 11.4304 29.6669 14.3449L29.499 15.5022C29.4369 15.9302 29.4368 16.365 29.4988 16.7932L29.6705 17.9796C30.0923 20.8937 26.9464 22.9946 24.4163 21.4885L16.8178 16.9652C16.5341 16.7964 16.3604 16.4907 16.3604 16.1606C16.3604 15.8305 16.5341 15.5249 16.8178 15.356L24.4129 10.8348Z" stroke="#949494"/>
<path d="M7.32064 21.4865C4.79001 22.9929 1.64367 20.8909 2.06665 17.9764L2.23459 16.8191C2.29672 16.391 2.2968 15.9562 2.23483 15.5281L2.06309 14.3417C1.64125 11.4276 4.78714 9.32671 7.31727 10.8328L14.9158 15.3561C15.1994 15.5249 15.3732 15.8306 15.3732 16.1607C15.3732 16.4907 15.1994 16.7964 14.9158 16.9653L7.32064 21.4865Z" stroke="#949494"/>
</svg>
