<svg width="24" height="32" viewBox="0 0 24 32" fill="none" xmlns="http://www.w3.org/2000/svg">
<rect x="1.26682" y="11.1606" width="22" height="20" rx="0.5" stroke="#949494"/>
<path d="M1.27851 11.1606C1.53949 5.59383 6.13544 1.16064 11.7668 1.16064H12.7668C18.3982 1.16064 22.9941 5.59383 23.2551 11.1606H1.27851Z" stroke="#949494"/>
<mask id="path-3-inside-1_345_595" fill="white">
<path fill-rule="evenodd" clip-rule="evenodd" d="M7.37534 10.6606H12.4076H15.7101H15.7234H20.7424V20.5195C20.7424 21.9091 19.6159 23.0356 18.2262 23.0356C16.9245 23.0356 15.8537 22.0471 15.7234 20.7799V21.6818L15.7234 21.6937V20.7794C15.7146 20.694 15.7101 20.6073 15.7101 20.5195V19.6337C15.6066 18.8176 14.9097 18.1866 14.0655 18.1866C13.1538 18.1866 12.414 18.9224 12.4076 19.8326V22.3941C12.4076 23.7837 11.2811 24.9102 9.89149 24.9102C8.50186 24.9102 7.37534 23.7837 7.37534 22.3941V10.6606Z"/>
</mask>
<path d="M7.37534 10.6606V9.66064H6.37534V10.6606H7.37534ZM20.7424 10.6606H21.7424V9.66064H20.7424V10.6606ZM15.7234 20.7799L16.7182 20.6776L14.7234 20.7799H15.7234ZM15.7234 21.6818L16.7234 21.6853V21.6818H15.7234ZM15.7234 21.6937H14.7234L16.7234 21.6972L15.7234 21.6937ZM15.7234 20.7794H16.7234V20.7283L16.7181 20.6773L15.7234 20.7794ZM15.7101 19.6337H16.7101V19.5705L16.7021 19.5079L15.7101 19.6337ZM12.4076 19.8326L11.4076 19.8256V19.8326H12.4076ZM12.4076 9.66064H7.37534V11.6606H12.4076V9.66064ZM15.7101 9.66064H12.4076V11.6606H15.7101V9.66064ZM15.7101 11.6606H15.7234V9.66064H15.7101V11.6606ZM15.7234 11.6606H20.7424V9.66064H15.7234V11.6606ZM19.7424 10.6606V20.5195H21.7424V10.6606H19.7424ZM19.7424 20.5195C19.7424 21.3568 19.0636 22.0356 18.2262 22.0356V24.0356C20.1682 24.0356 21.7424 22.4614 21.7424 20.5195H19.7424ZM18.2262 22.0356C17.4425 22.0356 16.7966 21.4401 16.7182 20.6776L14.7286 20.8821C14.9108 22.6541 16.4066 24.0356 18.2262 24.0356V22.0356ZM16.7234 21.6818V20.7799H14.7234V21.6818H16.7234ZM16.7234 21.6972L16.7234 21.6853L14.7234 21.6783L14.7234 21.6902L16.7234 21.6972ZM14.7234 20.7794V21.6937H16.7234V20.7794H14.7234ZM16.7181 20.6773C16.7128 20.6257 16.7101 20.5731 16.7101 20.5195H14.7101C14.7101 20.6414 14.7163 20.7622 14.7286 20.8816L16.7181 20.6773ZM16.7101 20.5195V19.6337H14.7101V20.5195H16.7101ZM14.0655 19.1866C14.3997 19.1866 14.6771 19.4367 14.718 19.7596L16.7021 19.5079C16.536 18.1985 15.4197 17.1866 14.0655 17.1866V19.1866ZM13.4076 19.8396C13.4102 19.4786 13.7038 19.1866 14.0655 19.1866V17.1866C12.6039 17.1866 11.4179 18.3663 11.4077 19.8256L13.4076 19.8396ZM13.4076 22.3941V19.8326H11.4076V22.3941H13.4076ZM9.89149 25.9102C11.8334 25.9102 13.4076 24.336 13.4076 22.3941H11.4076C11.4076 23.2314 10.7288 23.9102 9.89149 23.9102V25.9102ZM6.37534 22.3941C6.37534 24.336 7.94957 25.9102 9.89149 25.9102V23.9102C9.05414 23.9102 8.37534 23.2314 8.37534 22.3941H6.37534ZM6.37534 10.6606V22.3941H8.37534V10.6606H6.37534Z" fill="#949494" mask="url(#path-3-inside-1_345_595)"/>
</svg>
